<svg aria-hidden="true" xmlns="http://www.w3.org/2000/svg"><defs><symbol id="facebook" viewBox="0 0 32 32"><path d="M21.328 5.312h2.923V.224A36.483 36.483 0 0 0 20.143 0h-.156.008c-4.213 0-7.099 2.65-7.099 7.52V12H8.25v5.688h4.646V32h5.699V17.69h4.459l.707-5.688h-5.168V8.08c0-1.643.443-2.768 2.734-2.768z"/></symbol><symbol id="instagram" viewBox="0 0 32 32"><path d="M31.968 9.408c-.074-1.701-.349-2.869-.744-3.882a7.84 7.84 0 0 0-1.847-2.837l-.001-.001A7.906 7.906 0 0 0 26.598.861l-.054-.018C25.523.449 24.362.176 22.661.101 20.949.019 20.405 0 16.059 0c-4.344 0-4.888.019-6.595.094-1.701.074-2.869.349-3.88.742a7.847 7.847 0 0 0-2.839 1.85l-.001.001A7.9 7.9 0 0 0 .919 5.465l-.018.054C.506 6.538.232 7.7.157 9.401c-.082 1.712-.101 2.256-.101 6.602 0 4.344.019 4.888.094 6.595.075 1.701.35 2.869.744 3.882a7.915 7.915 0 0 0 1.849 2.837l.001.001c.8.813 1.77 1.443 2.832 1.843 1.019.395 2.182.67 3.882.744 1.707.075 2.251.094 6.595.094 4.346 0 4.89-.019 6.595-.094 1.701-.074 2.869-.349 3.882-.742a8.237 8.237 0 0 0 4.664-4.628l.019-.055c.394-1.019.669-2.182.744-3.882.075-1.707.093-2.251.093-6.595s-.006-4.888-.08-6.595zm-2.88 13.066c-.07 1.563-.333 2.406-.552 2.97a5.336 5.336 0 0 1-3.001 3.024l-.036.013c-.563.219-1.413.482-2.97.55-1.688.075-2.194.094-6.464.094-4.269 0-4.782-.019-6.464-.094-1.563-.069-2.406-.331-2.97-.55a4.953 4.953 0 0 1-1.836-1.192l-.001-.001a4.978 4.978 0 0 1-1.184-1.803l-.011-.034c-.218-.563-.48-1.413-.549-2.97-.075-1.688-.094-2.195-.094-6.464 0-4.27.019-4.784.094-6.464.069-1.563.331-2.406.549-2.97a4.897 4.897 0 0 1 1.198-1.837l.002-.002a4.972 4.972 0 0 1 1.806-1.182l.034-.011c.56-.219 1.411-.48 2.968-.55 1.688-.074 2.194-.093 6.464-.093 4.275 0 4.782.019 6.464.093 1.562.069 2.406.331 2.97.55a4.91 4.91 0 0 1 1.837 1.194c.531.52.938 1.144 1.195 1.84.218.56.48 1.411.549 2.968.075 1.688.094 2.194.094 6.464 0 4.269-.019 4.768-.094 6.458z"/><path d="M16.059 7.782a8.223 8.223 0 0 0-8.219 8.221v.002a8.222 8.222 0 1 0 16.444 0 8.222 8.222 0 0 0-8.222-8.222h-.002zm0 13.552a5.333 5.333 0 0 1 .001-10.666h.001a5.334 5.334 0 1 1 0 10.668zM26.525 7.458a1.92 1.92 0 0 1-3.84 0 1.92 1.92 0 0 1 3.84 0z"/></symbol><symbol id="linkedin" viewBox="0 0 32 32"><path d="M31.992 32H32V20.262c0-5.741-1.237-10.163-7.947-10.163-3.227 0-5.392 1.77-6.277 3.45h-.093v-2.914h-6.365v21.363h6.627V21.42c0-2.786.528-5.48 3.978-5.48 3.398 0 3.448 3.179 3.448 5.658V32h6.621zM.528 10.635h6.635V32H.528V10.635zM3.843 0A3.843 3.843 0 0 0 0 3.843c0 2.12 1.722 3.878 3.843 3.878 2.12 0 3.842-1.757 3.842-3.878S5.965.002 3.844 0z"/></symbol><symbol id="map-pin" viewBox="0 0 32 32"><path fill="none" stroke="#9da4bd" stroke-width="1.333" stroke-linecap="round" stroke-linejoin="round" style="stroke:var(--color1, #9da4bd)" d="M26.667 13.819C26.667 21.454 16 28 16 28S5.333 21.453 5.333 13.819C5.333 8.396 10.109 4 16 4s10.667 4.396 10.667 9.819v0z"/><path fill="none" stroke="#9da4bd" stroke-width="1.333" stroke-linecap="round" stroke-linejoin="round" style="stroke:var(--color1, #9da4bd)" d="M16 18.667a4 4 0 0 0 0-8v0a4 4 0 0 0 0 8v0z"/></symbol><symbol id="phone" viewBox="0 0 32 32"><path fill="none" stroke="#9da4bd" stroke-width="1.333" stroke-linecap="round" stroke-linejoin="round" style="stroke:var(--color1, #9da4bd)" d="M26.667 21.337v3.227A2.145 2.145 0 0 1 24.32 26.7l.009.001c-3.481-.388-6.626-1.563-9.338-3.343l.081.05a21.09 21.09 0 0 1-6.386-6.353l-.05-.083a20.982 20.982 0 0 1-3.285-9.205l-.008-.095a2.145 2.145 0 0 1 2.136-2.338h3.239c1.079 0 1.972.797 2.123 1.834l.001.012c.136 1.029.387 2.04.751 3.013a2.144 2.144 0 0 1-.483 2.264l-1.363 1.361c1.555 2.7 3.736 4.881 6.353 6.392l.083.044 1.363-1.361a2.14 2.14 0 0 1 2.278-.477l-.015-.005c.973.363 1.984.613 3.013.751a2.148 2.148 0 0 1 1.847 2.125l-.001.056v-.003z"/></symbol><symbol id="plus" viewBox="0 0 32 32"><path fill="#ff6c00" style="fill:var(--color2, #ff6c00)" d="M18.418 13.028h11.111v4.942H18.418v11.225h-4.942V17.974H2.386v-4.942h11.083V1.693h4.942v11.332z"/></symbol><symbol id="twitter" viewBox="0 0 32 32"><path d="M32 6.078c-1.1.493-2.376.857-3.713 1.028l-.068.007a6.556 6.556 0 0 0 2.873-3.579l.013-.046a12.88 12.88 0 0 1-4.076 1.573l-.084.014A6.558 6.558 0 0 0 15.6 9.557v.004c0 .52.043 1.021.152 1.496-5.454-.266-10.28-2.88-13.522-6.861a6.524 6.524 0 0 0-.902 3.313v.001a6.57 6.57 0 0 0 2.914 5.451 6.453 6.453 0 0 1-2.994-.823l.033.017v.072a6.592 6.592 0 0 0 5.213 6.44l.043.008a6.403 6.403 0 0 1-1.662.215h-.061.003c-.419 0-.843-.024-1.242-.112.85 2.598 3.261 4.509 6.13 4.57a13.093 13.093 0 0 1-8.122 2.8H1.57h.001-.062c-.531 0-1.055-.034-1.569-.099l.061.006c2.826 1.846 6.287 2.944 10.004 2.944h.063-.003c12.072 0 18.672-10 18.672-18.669 0-.288-.01-.57-.024-.848a13.203 13.203 0 0 0 3.258-3.355l.03-.047z"/></symbol></defs></svg>